0
SECTION
2
HEADER
9
$INSUNITS
70
4
9
$ACADVER
1
AC1014
9
$HANDSEED
5
FFFF
0
ENDSEC
0
SECTION
2
TABLES
0
TABLE
2
VPORT
5
8
100
AcDbSymbolTable
0
ENDTAB
0
TABLE
2
LTYPE
5
5
100
AcDbSymbolTable
0
LTYPE
5
14
100
AcDbSymbolTableRecord
100
AcDbLinetypeTableRecord
2
BYBLOCK
70
0
0
LTYPE
5
15
100
AcDbSymbolTableRecord
100
AcDbLinetypeTableRecord
2
BYLAYER
70
0
0
ENDTAB
0
TABLE
2
LAYER
5
2
100
AcDbSymbolTable
70
2
0
LAYER
5
50
100
AcDbSymbolTableRecord
100
AcDbLayerTableRecord
2
0
70
0
6
CONTINUOUS
0
ENDTAB
0
TABLE
2
STYLE
5
3
100
AcDbSymbolTable
70
1
0
STYLE
5
11
100
AcDbSymbolTableRecord
100
AcDbTextStyleTableRecord
2
STANDARD
70
0
0
ENDTAB
0
TABLE
2
VIEW
5
6
100
AcDbSymbolTable
70
0
0
ENDTAB
0
TABLE
2
UCS
5
7
100
AcDbSymbolTable
70
0
0
ENDTAB
0
TABLE
2
APPID
5
9
100
AcDbSymbolTable
70
2
0
APPID
5
12
100
AcDbSymbolTableRecord
100
AcDbRegAppTableRecord
2
ACAD
70
0
0
ENDTAB
0
TABLE
2
DIMSTYLE
5
A
100
AcDbSymbolTable
70
1
0
ENDTAB
0
TABLE
2
BLOCK_RECORD
5
1
100
AcDbSymbolTable
70
1
0
BLOCK_RECORD
5
1F
100
AcDbSymbolTableRecord
100
AcDbBlockTableRecord
2
*MODEL_SPACE
0
BLOCK_RECORD
5
1B
100
AcDbSymbolTableRecord
100
AcDbBlockTableRecord
2
*PAPER_SPACE
0
ENDTAB
0
ENDSEC
0
SECTION
2
BLOCKS
0
BLOCK
5
20
100
AcDbEntity
100
AcDbBlockBegin
2
*MODEL_SPACE
0
ENDBLK
5
21
100
AcDbEntity
100
AcDbBlockEnd
0
BLOCK
5
1C
100
AcDbEntity
100
AcDbBlockBegin
2
*PAPER_SPACE
0
ENDBLK
5
1D
100
AcDbEntity
100
AcDbBlockEnd
0
ENDSEC
0
SECTION
2
ENTITIES
0
LWPOLYLINE
5
100
100
AcDbEntity
8
0
100
AcDbPolyline
90
4
70
1
43
0.0
10
-64.4375
20
54.625
10
-78.4375
20
54.625
10
-78.4375
20
40.625
10
-64.4375
20
40.625
0
LWPOLYLINE
5
101
100
AcDbEntity
8
0
100
AcDbPolyline
90
4
70
1
43
0.0
10
-83.487500000000011
20
54.625
10
-97.487500000000011
20
54.625
10
-97.487500000000011
20
40.625
10
-83.487500000000011
20
40.625
0
CIRCLE
5
102
100
AcDbEntity
8
0
100
AcDbCircle
10
18.762500000000024
20
47.624999999999993
30
0
40
1.100000000000001
210
0
220
-0
230
1
0
LWPOLYLINE
5
103
100
AcDbEntity
8
0
100
AcDbPolyline
90
4
70
1
43
0.0
10
-102.53749999999999
20
92.724999999999994
10
-116.53750000000001
20
92.724999999999994
10
-116.53750000000001
20
78.724999999999994
10
-102.53749999999999
20
78.724999999999994
0
CIRCLE
5
104
100
AcDbEntity
8
0
100
AcDbCircle
10
-33.8125
20
-3.9999999999999996
30
0
40
1.0999999999999985
210
0
220
-0
230
1
0
LWPOLYLINE
5
105
100
AcDbEntity
8
0
100
AcDbPolyline
90
4
70
1
43
0.0
10
-38.243749999999999
20
54.625
10
-52.243750000000006
20
54.625
10
-52.243750000000006
20
40.625
10
-38.243749999999999
20
40.625
0
LWPOLYLINE
5
106
100
AcDbEntity
8
0
100
AcDbPolyline
90
4
70
1
43
0.0
10
-25.043249999999997
20
59.675000000000004
10
-25.043249999999997
20
74.674999999999997
10
-32.043250000000008
20
74.674999999999997
10
-32.043250000000008
20
59.675000000000004
0
LWPOLYLINE
5
107
100
AcDbEntity
8
0
100
AcDbPolyline
90
4
70
1
43
0.0
10
-83.487500000000011
20
59.675000000000004
10
-83.487500000000011
20
73.674999999999997
10
-97.487500000000011
20
73.674999999999997
10
-97.487500000000011
20
59.675000000000004
0
LWPOLYLINE
5
108
100
AcDbEntity
8
0
100
AcDbPolyline
90
4
70
1
43
0.0
10
-40.625
20
21.575000000000003
10
-40.625
20
35.575000000000003
10
-54.625
20
35.575000000000003
10
-54.625
20
21.575000000000003
0
LWPOLYLINE
5
109
100
AcDbEntity
8
0
100
AcDbPolyline
90
4
70
1
43
0.0
10
-121.58750000000001
20
59.675000000000004
10
-121.58750000000001
20
73.674999999999997
10
-135.58750000000001
20
73.674999999999997
10
-135.58750000000001
20
59.675000000000004
0
LWPOLYLINE
5
110
100
AcDbEntity
8
0
100
AcDbPolyline
90
4
70
1
43
0.0
10
-64.4375
20
21.575000000000003
10
-64.4375
20
35.575000000000003
10
-78.4375
20
35.575000000000003
10
-78.4375
20
21.575000000000003
0
LWPOLYLINE
5
111
100
AcDbEntity
8
0
100
AcDbPolyline
90
4
70
1
43
0.0
10
-2.5250000000000039
20
54.625
10
-16.524999999999999
20
54.625
10
-16.524999999999999
20
40.625
10
-2.524999999999995
20
40.625
0
LWPOLYLINE
5
112
100
AcDbEntity
8
0
100
AcDbPolyline
90
4
70
1
43
0.0
10
-102.53749999999999
20
54.625
10
-116.53750000000001
20
54.625
10
-116.53750000000001
20
40.625
10
-102.53749999999999
20
40.625
0
LWPOLYLINE
5
113
100
AcDbEntity
8
0
100
AcDbPolyline
90
4
70
1
43
0.0
10
-97.487500000000011
20
16.524999999999999
10
-97.487500000000011
20
2.524999999999995
10
-83.487500000000011
20
2.5250000000000039
10
-83.487500000000011
20
16.524999999999999
0
CIRCLE
5
114
100
AcDbEntity
8
0
100
AcDbCircle
10
-13.8125
20
-3.9999999999999996
30
0
40
1.0999999999999985
210
0
220
-0
230
1
0
CIRCLE
5
115
100
AcDbEntity
8
0
100
AcDbCircle
10
-76.200000000000017
20
99.25
30
0
40
1.1000000000000032
210
0
220
-0
230
1
0
LWPOLYLINE
5
116
100
AcDbEntity
8
0
100
AcDbPolyline
90
4
70
1
43
0.0
10
-40.337500000000006
20
16.524999999999999
10
-40.337500000000006
20
2.524999999999995
10
-26.337499999999999
20
2.5250000000000039
10
-26.337499999999999
20
16.524999999999999
0
CIRCLE
5
117
100
AcDbEntity
8
0
100
AcDbCircle
10
-148.11249999999998
20
-4.0000000000000018
30
0
40
1.0999999999999943
210
0
220
-0
230
1
0
LWPOLYLINE
5
118
100
AcDbEntity
8
0
100
AcDbPolyline
90
4
70
1
43
0.0
10
-154.63749999999999
20
73.674999999999997
10
-154.63749999999999
20
59.675000000000004
10
-140.63749999999999
20
59.675000000000004
10
-140.63749999999999
20
73.674999999999997
0
LWPOLYLINE
5
119
100
AcDbEntity
8
0
100
AcDbPolyline
90
4
70
1
43
0.0
10
-64.4375
20
16.524999999999999
10
-78.4375
20
16.524999999999999
10
-78.4375
20
2.5250000000000039
10
-64.4375
20
2.5250000000000039
0
CIRCLE
5
120
100
AcDbEntity
8
0
100
AcDbCircle
10
-128.11250000000001
20
-4.0000000000000018
30
0
40
1.0999999999999943
210
0
220
-0
230
1
0
LWPOLYLINE
5
121
100
AcDbEntity
8
0
100
AcDbPolyline
90
4
70
1
43
0.0
10
-78.4375
20
73.674999999999997
10
-78.4375
20
59.675000000000004
10
-64.4375
20
59.675000000000004
10
-64.4375
20
73.674999999999997
0
CIRCLE
5
122
100
AcDbEntity
8
0
100
AcDbCircle
10
7.0379967599797411
20
-3.5208424531726297
30
0
40
1.100000000000001
210
0
220
-0
230
1
0
LWPOLYLINE
5
123
100
AcDbEntity
8
0
100
AcDbPolyline
90
4
70
1
43
0.0
10
-33.481250000000003
20
78.724999999999994
10
-33.481250000000003
20
92.724999999999994
10
-47.48125000000001
20
92.724999999999994
10
-47.48125000000001
20
78.724999999999994
0
LWPOLYLINE
5
124
100
AcDbEntity
8
0
100
AcDbPolyline
90
4
70
1
43
0.0
10
-121.58750000000001
20
54.625
10
-135.58750000000001
20
54.625
10
-135.58750000000001
20
40.625
10
-121.58750000000001
20
40.625
0
CIRCLE
5
125
100
AcDbEntity
8
0
100
AcDbCircle
10
7.037996759979757
20
98.770842453172634
30
0
40
1.0999999999999943
210
0
220
-0
230
1
0
LWPOLYLINE
5
126
100
AcDbEntity
8
0
100
AcDbPolyline
90
4
70
1
43
0.0
10
-116.53750000000001
20
21.575000000000003
10
-102.53749999999999
20
21.575000000000003
10
-102.53749999999999
20
35.575000000000003
10
-116.53750000000001
20
35.575000000000003
0
LWPOLYLINE
5
127
100
AcDbEntity
8
0
100
AcDbPolyline
90
4
70
1
43
0.0
10
-83.487500000000011
20
35.575000000000003
10
-97.487500000000011
20
35.575000000000003
10
-97.487500000000011
20
21.575000000000003
10
-83.487500000000011
20
21.575000000000003
0
LWPOLYLINE
5
128
100
AcDbEntity
8
0
100
AcDbPolyline
90
4
70
1
43
0.0
10
-71.293750000000003
20
78.724999999999994
10
-57.29375000000001
20
78.724999999999994
10
-57.29375000000001
20
92.724999999999994
10
-71.293750000000003
20
92.724999999999994
0
CIRCLE
5
129
100
AcDbEntity
8
0
100
AcDbCircle
10
-160.28382034355963
20
98.37132034355966
30
0
40
1.0999999999999943
210
0
220
-0
230
1
0
LWPOLYLINE
5
130
100
AcDbEntity
8
0
100
AcDbPolyline
90
4
70
1
43
0.0
10
-140.63749999999999
20
2.5250000000000039
10
-140.63749999999999
20
16.524999999999999
10
-154.63749999999999
20
16.524999999999999
10
-154.63749999999999
20
2.524999999999995
0
LWPOLYLINE
5
131
100
AcDbEntity
8
0
100
AcDbPolyline
90
4
70
1
43
0.0
10
-140.63749999999999
20
54.625
10
-154.63749999999999
20
54.625
10
-154.63749999999999
20
40.625
10
-140.63749999999999
20
40.625
0
LWPOLYLINE
5
132
100
AcDbEntity
8
0
100
AcDbPolyline
90
4
70
1
43
0.0
10
-95.106250000000017
20
78.724999999999994
10
-81.106250000000003
20
78.724999999999994
10
-81.106250000000003
20
92.724999999999994
10
-95.106250000000017
20
92.724999999999994
0
LWPOLYLINE
5
133
100
AcDbEntity
8
0
100
AcDbPolyline
90
4
70
1
43
0.0
10
-154.63749999999999
20
35.575000000000003
10
-154.63749999999999
20
21.575000000000003
10
-140.63749999999999
20
21.575000000000003
10
-140.63749999999999
20
35.575000000000003
0
LWPOLYLINE
5
134
100
AcDbEntity
8
0
100
AcDbPolyline
90
4
70
1
43
0.0
10
-2.524999999999995
20
59.675000000000004
10
-2.5250000000000039
20
73.674999999999997
10
-16.524999999999999
20
73.674999999999997
10
-16.524999999999999
20
59.675000000000004
0
LWPOLYLINE
5
135
100
AcDbEntity
8
0
100
AcDbPolyline
90
4
70
1
43
0.0
10
-47.48125000000001
20
73.674999999999997
10
-47.48125000000001
20
59.675000000000004
10
-33.481250000000003
20
59.675000000000004
10
-33.481250000000003
20
73.674999999999997
0
LWPOLYLINE
5
136
100
AcDbEntity
8
0
100
AcDbPolyline
90
4
70
1
43
0.0
10
-2.524999999999995
20
78.724999999999994
10
-2.5250000000000039
20
92.724999999999994
10
-16.524999999999999
20
92.724999999999994
10
-16.524999999999999
20
78.724999999999994
0
LWPOLYLINE
5
137
100
AcDbEntity
8
0
100
AcDbPolyline
90
4
70
1
43
0.0
10
-121.58750000000001
20
21.575000000000003
10
-121.58750000000001
20
35.575000000000003
10
-135.58750000000001
20
35.575000000000003
10
-135.58750000000001
20
21.575000000000003
0
LWPOLYLINE
5
138
100
AcDbEntity
8
0
100
AcDbPolyline
90
12
70
1
43
0.0
10
-121.58750000000001
20
92.724999999999994
10
-154.63749999999999
20
92.724999999999994
10
-154.63749999999999
20
78.724999999999994
10
-153.5505
20
78.724999999999994
10
-153.5505
20
77.724999999999994
10
-146.5505
20
77.724999999999994
10
-146.5505
20
78.724999999999994
10
-129.67449999999999
20
78.724999999999994
10
-129.67449999999999
20
77.724999999999994
10
-122.67449999999999
20
77.724999999999994
10
-122.67449999999999
20
78.724999999999994
10
-121.58750000000001
20
78.724999999999994
0
LWPOLYLINE
5
139
100
AcDbEntity
8
0
100
AcDbPolyline
90
4
70
1
43
0.0
10
-102.53749999999999
20
59.675000000000004
10
-102.53749999999999
20
73.674999999999997
10
-116.53750000000001
20
73.674999999999997
10
-116.53750000000001
20
59.675000000000004
0
CIRCLE
5
140
100
AcDbEntity
8
0
100
AcDbCircle
10
-160.28382034355963
20
-3.1213203435596402
30
0
40
1.0999999999999943
210
0
220
-0
230
1
0
LWPOLYLINE
5
141
100
AcDbEntity
8
0
100
AcDbPolyline
90
4
70
1
43
0.0
10
-2.5250000000000039
20
35.575000000000003
10
-16.524999999999999
20
35.575000000000003
10
-16.524999999999999
20
21.575000000000003
10
-2.524999999999995
20
21.575000000000003
0
LWPOLYLINE
5
142
100
AcDbEntity
8
0
100
AcDbPolyline
90
4
70
1
43
0.0
10
-102.53749999999999
20
16.524999999999999
10
-116.53750000000001
20
16.524999999999999
10
-116.53750000000001
20
2.5250000000000039
10
-102.53749999999999
20
2.5250000000000039
0
LWPOLYLINE
5
143
100
AcDbEntity
8
0
100
AcDbPolyline
90
4
70
1
43
0.0
10
-58.225000000000009
20
35.575000000000003
10
-60.225000000000009
20
35.575000000000003
10
-60.225000000000009
20
21.575000000000003
10
-58.225000000000009
20
21.575000000000003
0
LWPOLYLINE
5
144
100
AcDbEntity
8
0
100
AcDbPolyline
90
4
70
1
43
0.0
10
-45.387500000000003
20
16.524999999999999
10
-59.387500000000003
20
16.524999999999999
10
-59.387500000000003
20
2.524999999999995
10
-45.387500000000003
20
2.5250000000000039
0
LWPOLYLINE
5
145
100
AcDbEntity
8
0
100
AcDbPolyline
90
4
70
1
43
0.0
10
-2.524999999999995
20
1.5249999999999986
10
-2.5250000000000039
20
18.025000000000002
10
-16.524999999999999
20
18.025000000000002
10
-16.524999999999999
20
1.5249999999999986
0
LWPOLYLINE
5
146
100
AcDbEntity
8
0
100
AcDbPolyline
90
4
70
1
43
0.0
10
-35.024999999999991
20
35.575000000000003
10
-37.025000000000006
20
35.575000000000003
10
-37.025000000000006
20
21.575000000000003
10
-35.024999999999991
20
21.575000000000003
0
LWPOLYLINE
5
147
100
AcDbEntity
8
0
100
AcDbPolyline
90
4
70
1
43
0.0
10
-55.919249999999998
20
59.675000000000004
10
-48.919250000000005
20
59.675000000000004
10
-48.919250000000005
20
74.674999999999997
10
-55.919249999999998
20
74.674999999999997
0
LWPOLYLINE
5
148
100
AcDbEntity
8
0
100
AcDbPolyline
90
4
70
1
43
0.0
10
-121.58750000000001
20
2.5250000000000039
10
-121.58750000000001
20
16.524999999999999
10
-135.58750000000001
20
16.524999999999999
10
-135.58750000000001
20
2.524999999999995
0
LWPOLYLINE
5
149
100
AcDbEntity
8
0
100
AcDbPolyline
90
8
70
1
43
0.0
10
-159.16250000000002
20
-7.9999999999999964
42
-0.41421356237309515
10
-165.16250000000002
20
-1.9999999999999929
10
-165.16249999999999
20
97.250000000000028
42
-0.41421356237309331
10
-159.16250000000002
20
103.25000000000001
10
6.0605850820949687
20
103.25000000000006
42
-0.29460254168231464
10
11.527298206396539
20
99.722862231623196
42
-0.21565571622982543
10
11.527298206396544
20
-4.472862231623207
42
-0.29460254168231231
10
6.0605850820949492
20
-7.9999999999999982
0
ENDSEC
0
SECTION
2
OBJECTS
0
DICTIONARY
5
C
100
AcDbDictionary
3
ACAD_GROUP
350
D
3
ACAD_MLINESTYLE
350
17
0
DICTIONARY
5
D
100
AcDbDictionary
0
DICTIONARY
5
1A
330
C
100
AcDbDictionary
0
DICTIONARY
5
17
100
AcDbDictionary
0
ENDSEC
0
EOF
