0
SECTION
2
HEADER
9
$INSUNITS
70
4
9
$ACADVER
1
AC1014
9
$HANDSEED
5
FFFF
0
ENDSEC
0
SECTION
2
TABLES
0
TABLE
2
VPORT
5
8
100
AcDbSymbolTable
0
ENDTAB
0
TABLE
2
LTYPE
5
5
100
AcDbSymbolTable
0
LTYPE
5
14
100
AcDbSymbolTableRecord
100
AcDbLinetypeTableRecord
2
BYBLOCK
70
0
0
LTYPE
5
15
100
AcDbSymbolTableRecord
100
AcDbLinetypeTableRecord
2
BYLAYER
70
0
0
ENDTAB
0
TABLE
2
LAYER
5
2
100
AcDbSymbolTable
70
2
0
LAYER
5
50
100
AcDbSymbolTableRecord
100
AcDbLayerTableRecord
2
0
70
0
6
CONTINUOUS
0
ENDTAB
0
TABLE
2
STYLE
5
3
100
AcDbSymbolTable
70
1
0
STYLE
5
11
100
AcDbSymbolTableRecord
100
AcDbTextStyleTableRecord
2
STANDARD
70
0
0
ENDTAB
0
TABLE
2
VIEW
5
6
100
AcDbSymbolTable
70
0
0
ENDTAB
0
TABLE
2
UCS
5
7
100
AcDbSymbolTable
70
0
0
ENDTAB
0
TABLE
2
APPID
5
9
100
AcDbSymbolTable
70
2
0
APPID
5
12
100
AcDbSymbolTableRecord
100
AcDbRegAppTableRecord
2
ACAD
70
0
0
ENDTAB
0
TABLE
2
DIMSTYLE
5
A
100
AcDbSymbolTable
70
1
0
ENDTAB
0
TABLE
2
BLOCK_RECORD
5
1
100
AcDbSymbolTable
70
1
0
BLOCK_RECORD
5
1F
100
AcDbSymbolTableRecord
100
AcDbBlockTableRecord
2
*MODEL_SPACE
0
BLOCK_RECORD
5
1B
100
AcDbSymbolTableRecord
100
AcDbBlockTableRecord
2
*PAPER_SPACE
0
ENDTAB
0
ENDSEC
0
SECTION
2
BLOCKS
0
BLOCK
5
20
100
AcDbEntity
100
AcDbBlockBegin
2
*MODEL_SPACE
0
ENDBLK
5
21
100
AcDbEntity
100
AcDbBlockEnd
0
BLOCK
5
1C
100
AcDbEntity
100
AcDbBlockBegin
2
*PAPER_SPACE
0
ENDBLK
5
1D
100
AcDbEntity
100
AcDbBlockEnd
0
ENDSEC
0
SECTION
2
ENTITIES
0
CIRCLE
5
100
100
AcDbEntity
8
0
100
AcDbCircle
10
-33.8125
20
-3.9999999999999996
30
0
40
1.6499999999999984
210
0
220
-0
230
1
0
CIRCLE
5
101
100
AcDbEntity
8
0
100
AcDbCircle
10
-128.11250000000001
20
-4.0000000000000018
30
0
40
1.6499999999999941
210
0
220
-0
230
1
0
LWPOLYLINE
5
102
100
AcDbEntity
8
0
100
AcDbPolyline
90
8
70
1
43
0.0
10
-31.812500000000004
20
-5.5511151231257827e-16
42
-0.41421356237309481
10
-29.8125
20
-2.0000000000000009
10
-29.8125
20
-9.0000000000000018
42
-0.41421356237309337
10
-31.812500000000004
20
-11
10
-130.11250000000001
20
-10.999999999999996
42
-0.41421356237309553
10
-132.11250000000001
20
-9.0000000000000018
10
-132.11250000000001
20
-2
42
-0.41421356237309542
10
-130.11250000000001
20
0
0
LWPOLYLINE
5
103
100
AcDbEntity
8
0
100
AcDbPolyline
90
24
70
1
43
0.0
10
3.7625000000000064
20
95.25
10
-156.16250000000002
20
95.25
42
0.41421356237309509
10
-157.16249999999999
20
94.25
10
-157.16250000000002
20
1.0000000000000004
42
0.41421356237310025
10
-156.16250000000002
20
0
10
-146.11250000000001
20
-4.163336342344337e-15
42
-0.41421356237309542
10
-144.11250000000001
20
-1.9999999999999996
10
-144.11250000000001
20
-9.0000000000000018
42
-0.41421356237309553
10
-146.11250000000001
20
-11.000000000000004
10
-159.16250000000002
20
-11.000000000000004
42
-0.4142135623730952
10
-168.16250000000002
20
-1.9999999999999929
10
-168.16249999999999
20
97.250000000000028
42
-0.41421356237309387
10
-159.16250000000002
20
106.25000000000001
10
6.060585082094974
20
106.25000000000007
42
-0.29460254168231526
10
14.260654768547338
20
100.95929334743481
42
-0.21565571622982543
10
14.260654768547351
20
-5.7092933474348033
42
-0.29460254168231337
10
6.0605850820949314
20
-10.999999999999996
10
-15.812499999999998
20
-11
42
-0.41421356237309309
10
-17.8125
20
-9
10
-17.812499999999996
20
-2.0000000000000009
42
-0.41421356237309453
10
-15.812499999999998
20
0
10
3.7625000000000028
20
-3.7470027081099033e-15
42
0.41421356237309509
10
4.7625000000000028
20
0.99999999999999645
10
4.7625000000000064
20
94.25
42
0.41421356237309509
0
CIRCLE
5
104
100
AcDbEntity
8
0
100
AcDbCircle
10
-76.200000000000017
20
99.25
30
0
40
1.650000000000003
210
0
220
-0
230
1
0
CIRCLE
5
105
100
AcDbEntity
8
0
100
AcDbCircle
10
-148.11249999999998
20
-4.0000000000000018
30
0
40
1.6499999999999941
210
0
220
-0
230
1
0
CIRCLE
5
106
100
AcDbEntity
8
0
100
AcDbCircle
10
-13.8125
20
-3.9999999999999996
30
0
40
1.6499999999999984
210
0
220
-0
230
1
0
CIRCLE
5
107
100
AcDbEntity
8
0
100
AcDbCircle
10
7.0379967599797411
20
-3.5208424531726297
30
0
40
1.6500000000000008
210
0
220
-0
230
1
0
CIRCLE
5
108
100
AcDbEntity
8
0
100
AcDbCircle
10
7.037996759979757
20
98.770842453172634
30
0
40
1.6499999999999941
210
0
220
-0
230
1
0
CIRCLE
5
109
100
AcDbEntity
8
0
100
AcDbCircle
10
-160.28382034355963
20
98.37132034355966
30
0
40
1.6499999999999941
210
0
220
-0
230
1
0
CIRCLE
5
110
100
AcDbEntity
8
0
100
AcDbCircle
10
-160.28382034355963
20
-3.1213203435596402
30
0
40
1.6499999999999941
210
0
220
-0
230
1
0
CIRCLE
5
111
100
AcDbEntity
8
0
100
AcDbCircle
10
18.762500000000024
20
47.624999999999993
30
0
40
1.6500000000000008
210
0
220
-0
230
1
0
ENDSEC
0
SECTION
2
OBJECTS
0
DICTIONARY
5
C
100
AcDbDictionary
3
ACAD_GROUP
350
D
3
ACAD_MLINESTYLE
350
17
0
DICTIONARY
5
D
100
AcDbDictionary
0
DICTIONARY
5
1A
330
C
100
AcDbDictionary
0
DICTIONARY
5
17
100
AcDbDictionary
0
ENDSEC
0
EOF
